<svg xmlns="http://www.w3.org/2000/svg" width="100" height="100"><path fill-rule="evenodd" clip-rule="evenodd" d="M50 100c-27.615 0-50-22.387-50-50 0-27.614 22.385-50 50-50 27.614 0 50 22.386 50 50 0 27.613-22.386 50-50 50zm.435-85.911c-19.21 0-36.345 17.135-36.345 36.346 0 19.209 17.135 36.345 36.345 36.345s36.345-17.135 36.345-36.345c0-19.21-17.135-36.346-36.345-36.346zm-.044 45.677h-1.562c-2.401 0-5.35-1.712-5.35-4.114v-22.091c0-2.402 1.946-5.13 4.349-5.13h2.52c2.4 0 4.731 2.371 4.731 4.771v15.626h14.845c2.4 0 5.125 1.902 5.125 4.304v2.52c0 2.402-2.725 4.114-5.125 4.114h-19.533z"/></svg>