<svg xmlns="http://www.w3.org/2000/svg" xmlns:xlink="http://www.w3.org/1999/xlink" version="1.1" x="0px" y="0px" width="100px" height="100px" viewBox="0 0 100 100" enable-background="new 0 0 100 100" xml:space="preserve">
<g id="Captions">
</g>
<g id="Your_Icon">
	<path fill-rule="evenodd" clip-rule="evenodd" d="M50,100C22.385,100,0,77.613,0,50C0,22.386,22.385,0,50,0   c27.614,0,50,22.386,50,50C100,77.613,77.614,100,50,100z M50.435,14.089c-19.21,0-36.345,17.135-36.345,36.346   c0,19.209,17.135,36.345,36.345,36.345S86.78,69.645,86.78,50.435C86.78,31.225,69.645,14.089,50.435,14.089z M50.391,59.766   h-1.562c-2.401,0-5.35-1.712-5.35-4.114v-1.738V33.561c0-2.402,1.946-5.13,4.349-5.13h2.52c2.4,0,4.731,2.371,4.731,4.771v15.626   h14.845c2.4,0,5.125,1.902,5.125,4.304v2.52c0,2.402-2.725,4.114-5.125,4.114H50.391z"/>
</g>
</svg>